<svg id="Capa_1" enable-background="new 0 0 502 502" height="512" viewBox="0 0 502 502" width="512" xmlns="http://www.w3.org/2000/svg" xmlns:xlink="http://www.w3.org/1999/xlink"><linearGradient id="lg1"><stop offset="0" stop-color="#4e5660"/><stop offset="1" stop-color="#64768d"/></linearGradient><linearGradient id="SVGID_1_" gradientUnits="userSpaceOnUse" x1="251" x2="251" xlink:href="#lg1" y1="96.374" y2="17.988"/><linearGradient id="lg2"><stop offset="0" stop-color="#f4c22c"/><stop offset="1" stop-color="#f9e198"/></linearGradient><linearGradient id="SVGID_2_" gradientUnits="userSpaceOnUse" x1="95.866" x2="406.134" xlink:href="#lg2" y1="147.442" y2="147.442"/><linearGradient id="SVGID_3_" gradientUnits="userSpaceOnUse" x1="104.216" x2="10.415" xlink:href="#lg1" y1="306.619" y2="306.619"/><linearGradient id="SVGID_4_" gradientTransform="matrix(-1 0 0 1 302 0)" gradientUnits="userSpaceOnUse" x1="-95.784" x2="-189.585" xlink:href="#lg1" y1="306.619" y2="306.619"/><linearGradient id="SVGID_5_" gradientUnits="userSpaceOnUse" x1="251" x2="251" xlink:href="#lg1" y1="314.544" y2="210.708"/><linearGradient id="SVGID_6_" gradientUnits="userSpaceOnUse" x1="251" x2="251" xlink:href="#lg2" y1="494.319" y2="275.049"/><linearGradient id="lg3"><stop offset="0" stop-color="#9fd8e6"/><stop offset="1" stop-color="#c4e8f0"/></linearGradient><linearGradient id="SVGID_7_" gradientUnits="userSpaceOnUse" x1="90.53" x2="90.53" xlink:href="#lg3" y1="212.692" y2="56.436"/><linearGradient id="SVGID_8_" gradientTransform="matrix(-1 0 0 1 302 0)" gradientUnits="userSpaceOnUse" x1="-109.471" x2="-109.471" xlink:href="#lg3" y1="212.692" y2="56.436"/><linearGradient id="SVGID_9_" gradientUnits="userSpaceOnUse" x1="118.594" x2="118.594" xlink:href="#lg2" y1="255.175" y2="188.927"/><linearGradient id="SVGID_10_" gradientTransform="matrix(-1 0 0 1 302 0)" gradientUnits="userSpaceOnUse" x1="-81.406" x2="-81.406" xlink:href="#lg2" y1="255.175" y2="188.927"/><g><path d="m306.536 97.613c0-42.802-31.794-85.14-55.536-85.14s-55.536 42.338-55.536 85.14z" fill="url(#SVGID_1_)"/><path d="m95.866 219.582c71.33-15.744 96.54-23.728 155.134-23.728s83.804 7.983 155.134 23.728c-5.772-80.645-73.018-144.28-155.134-144.28s-149.362 63.635-155.134 144.28z" fill="url(#SVGID_2_)"/><path d="m52.915 358.396c-14.357-12.942-15.506-35.073-2.564-49.432 26.35-29.231 64.394-50.697 110.021-62.075 18.757-4.678 37.752 6.736 42.429 25.491 4.677 18.756-6.735 37.752-25.491 42.429-31.599 7.88-58.221 22.448-74.962 41.022-12.909 14.32-35.037 15.538-49.433 2.565z" fill="url(#SVGID_3_)"/><path d="m449.085 358.396c14.357-12.942 15.506-35.073 2.564-49.432-26.35-29.231-64.393-50.697-110.021-62.075-18.757-4.678-37.752 6.736-42.429 25.491-4.677 18.756 6.735 37.752 25.491 42.429 31.599 7.88 58.221 22.448 74.962 41.022 12.909 14.32 35.037 15.538 49.433 2.565z" fill="url(#SVGID_4_)"/><path d="m406.134 219.582c-41.809-35.078-96.54-54.313-155.134-54.313s-113.325 19.234-155.134 54.313c-.266 3.72-.409 7.475-.409 11.263 0 85.904 69.639 155.543 155.543 155.543s155.543-69.639 155.543-155.543c0-3.788-.143-7.543-.409-11.263z" fill="url(#SVGID_5_)"/><path d="m291.901 235.493c2.16-10.096-4.853-19.803-15.103-21.044-8.453-1.023-17.067-1.545-25.798-1.545-57.997 0-112.615 23.054-147.695 66.829 4.262 12.882 10.166 25.014 17.457 36.157 24.125-40.527 71.522-67.986 130.238-67.986 7.456 0 14.728.445 21.793 1.303 8.946 1.087 17.223-4.902 19.108-13.714z" fill="#424e5e"/><path d="m398.595 379.164c0-72.493-61.691-131.26-147.595-131.26s-147.595 58.767-147.595 131.26 61.691 110.363 147.595 110.363 147.595-37.871 147.595-110.363z" fill="url(#SVGID_6_)"/><path d="m132.388 62.712c-30.106-30.106-78.755-30.369-109.186-.788-31.851 30.962-30.526 82.468 1.613 113.13 29.046 27.711 74.753 48.69 111.671 60.504 23.472 7.511 47.025-11.464 44.367-35.965-4.915-45.316-17.686-106.102-48.465-136.881z" fill="url(#SVGID_7_)"/><path d="m369.612 62.712c30.107-30.106 78.755-30.369 109.186-.788 31.851 30.962 30.526 82.468-1.613 113.13-29.046 27.711-74.753 48.69-111.671 60.504-23.472 7.511-47.025-11.464-44.367-35.965 4.915-45.316 17.686-106.102 48.465-136.881z" fill="url(#SVGID_8_)"/><g><ellipse cx="163.115" cy="409.002" fill="#ff8392" rx="14.936" ry="12.003"/><ellipse cx="338.886" cy="409.002" fill="#ff8392" rx="14.936" ry="12.003"/><path d="m188.721 383.35c7.183 0 13.813 1.589 19.159 4.273 4.544 2.281 9.962-.801 10.365-5.87.113-1.423.126-2.875.029-4.348-.991-15.146-13.602-27.24-28.775-27.629-16.713-.428-30.396 12.992-30.396 29.608 0 .843.035 1.678.105 2.503.422 5.01 5.857 7.995 10.349 5.738 5.348-2.684 11.979-4.275 19.164-4.275z" fill="#fff"/><path d="m251 419.189c-6.447 0-12.894-2.155-18.273-6.465-4.989-3.997-5.794-11.282-1.797-16.271 3.997-4.99 11.282-5.793 16.271-1.797 2.237 1.792 5.361 1.792 7.598 0 4.988-3.997 12.273-3.193 16.271 1.797 3.997 4.989 3.193 12.274-1.797 16.271-5.379 4.31-11.826 6.465-18.273 6.465z" fill="#3b3b44"/><path d="m188.721 383.35c5.926 0 11.473 1.082 16.237 2.967.911-2.129 1.415-4.47 1.415-6.933 0-9.749-7.903-17.652-17.652-17.652s-17.652 7.903-17.652 17.652c0 2.463.504 4.803 1.415 6.933 4.764-1.885 10.312-2.967 16.237-2.967z" fill="#3b3b44"/><path d="m313.279 383.35c7.183 0 13.813 1.589 19.158 4.273 4.544 2.281 9.962-.801 10.365-5.87.113-1.423.125-2.875.029-4.348-.991-15.146-13.602-27.24-28.775-27.629-16.713-.428-30.396 12.992-30.396 29.608 0 .843.035 1.678.105 2.503.422 5.01 5.857 7.995 10.349 5.738 5.348-2.684 11.98-4.275 19.165-4.275z" fill="#fff"/><path d="m313.279 383.35c5.926 0 11.473 1.082 16.237 2.967.911-2.129 1.415-4.47 1.415-6.933 0-9.749-7.903-17.652-17.652-17.652s-17.652 7.903-17.652 17.652c0 2.463.504 4.803 1.415 6.933 4.763-1.885 10.311-2.967 16.237-2.967z" fill="#3b3b44"/></g><path d="m206.797 315.153c-4.428 0-8.647-2.571-10.539-6.887-6.001-13.694-19.684-30.432-39.567-48.403-17.717-16.013-35.319-28.523-42.065-33.159-5.234-3.597-6.563-10.756-2.965-15.99 3.596-5.235 10.755-6.564 15.99-2.965 16.672 11.456 72.41 51.896 89.674 91.285 2.549 5.817-.1 12.6-5.917 15.149-1.503.659-3.07.97-4.611.97z" fill="#e06e1c"/><circle cx="118.594" cy="217.226" fill="url(#SVGID_9_)" r="36.501"/><path d="m295.203 315.153c-1.542 0-3.108-.312-4.61-.97-5.817-2.55-8.466-9.332-5.917-15.149 17.264-39.389 73.002-79.829 89.674-91.285 5.235-3.601 12.395-2.268 15.99 2.965 3.598 5.234 2.27 12.393-2.965 15.99-6.746 4.636-24.349 17.147-42.065 33.159-19.884 17.972-33.566 34.709-39.567 48.403-1.892 4.315-6.112 6.887-10.54 6.887z" fill="#e06e1c"/><circle cx="383.406" cy="217.226" fill="url(#SVGID_10_)" r="36.501"/><g fill="#dff7fa"><path d="m456.479 163.348c-2.639 0-5.272-1.037-7.237-3.097-3.813-3.996-3.664-10.326.332-14.139 4.387-4.185 7.825-9.443 9.946-15.208 1.906-5.184 7.653-7.839 12.837-5.933s7.84 7.653 5.933 12.837c-3.169 8.616-8.325 16.491-14.909 22.774-1.938 1.849-4.422 2.766-6.902 2.766z"/><path d="m466.897 105.619c-3.639 0-7.147-1.993-8.915-5.456-1.06-2.076-2.328-4.061-3.771-5.898-3.41-4.344-2.654-10.63 1.689-14.041 4.343-3.41 10.63-2.655 14.041 1.689 2.239 2.852 4.21 5.934 5.855 9.158 2.511 4.92.558 10.942-4.361 13.453-1.456.744-3.009 1.095-4.538 1.095z"/></g></g></svg>